# xmcd
#
# Track frame offsets: 
#        150
#        13791
#        28528
#        55567
#        73172
#        89860
#        104889
#        125299
#        138375
#        171140
#
# Disc length: 2555 seconds
#
# Revision: 2
# Processed by: cddbd v1.5.2PL0 Copyright (c) Steve Scherf et al.
# Submitted via: ExactAudioCopyFreeDBPlugin 1.0
#
DISCID=8e09f90a
DTITLE=Nina Simone - Let It Be Me
DYEAR=1987
DGENRE=Blues
TTITLE0=My Baby Just Cares For Me
TTITLE1=Sugar In My Bowl
TTITLE2=Fodder On My Wings
TTITLE3=Be My Husband
TTITLE4=Just Like A Woman
TTITLE5=Balm In Gilead
TTITLE6=Stars
TTITLE7=If You Pray Right (Heaven Belongs To You)
TTITLE8=If You Knew - Let It Be Me
TTITLE9=Baltimore
EXTD=YEAR: 1987
EXTT0=
EXTT1=
EXTT2=
EXTT3=
EXTT4=
EXTT5=
EXTT6=
EXTT7=
EXTT8=
EXTT9=
PLAYORDER=
